<mxfile host="app.diagrams.net" modified="2023-11-11T21:28:50.461Z" agent="Mozilla/5.0 (Macintosh; Intel Mac OS X 10_15_7) AppleWebKit/537.36 (KHTML, like Gecko) Chrome/119.0.0.0 Safari/537.36" etag="O3cpfu2cjsm9dgoQXMqT" version="22.1.0" type="device">
  <diagram name="Страница — 1" id="-HxmSBmulutoMmKue4LQ">
    <mxGraphModel dx="1026" dy="572" grid="1" gridSize="10" guides="1" tooltips="1" connect="1" arrows="1" fold="1" page="1" pageScale="1" pageWidth="827" pageHeight="1169" math="0" shadow="0">
      <root>
        <mxCell id="0" />
        <mxCell id="1" parent="0" />
        <mxCell id="ODKjQ-sCagSUDkUFFcM--78" value="" style="rounded=0;orthogonalLoop=1;jettySize=auto;html=1;endArrow=none;endFill=0;" parent="1" source="ODKjQ-sCagSUDkUFFcM--54" target="ODKjQ-sCagSUDkUFFcM--58" edge="1">
          <mxGeometry relative="1" as="geometry" />
        </mxCell>
        <mxCell id="ODKjQ-sCagSUDkUFFcM--79" value="" style="rounded=0;orthogonalLoop=1;jettySize=auto;html=1;endArrow=none;endFill=0;" parent="1" source="ODKjQ-sCagSUDkUFFcM--58" target="ODKjQ-sCagSUDkUFFcM--61" edge="1">
          <mxGeometry relative="1" as="geometry" />
        </mxCell>
        <mxCell id="ODKjQ-sCagSUDkUFFcM--54" value="Керівник" style="ellipse;whiteSpace=wrap;html=1;endArrow=none;rounded=0;endFill=0;" parent="1" vertex="1">
          <mxGeometry x="340" y="680" width="70" height="40" as="geometry" />
        </mxCell>
        <mxCell id="ODKjQ-sCagSUDkUFFcM--81" value="" style="rounded=0;orthogonalLoop=1;jettySize=auto;html=1;endArrow=none;endFill=0;" parent="1" source="ODKjQ-sCagSUDkUFFcM--58" target="ODKjQ-sCagSUDkUFFcM--64" edge="1">
          <mxGeometry relative="1" as="geometry" />
        </mxCell>
        <mxCell id="ODKjQ-sCagSUDkUFFcM--58" value="1" style="ellipse;whiteSpace=wrap;html=1;endArrow=none;rounded=0;endFill=0;" parent="1" vertex="1">
          <mxGeometry x="270" y="740" width="40" height="40" as="geometry" />
        </mxCell>
        <mxCell id="ODKjQ-sCagSUDkUFFcM--80" value="" style="rounded=0;orthogonalLoop=1;jettySize=auto;html=1;endArrow=none;endFill=0;" parent="1" source="ODKjQ-sCagSUDkUFFcM--61" target="ODKjQ-sCagSUDkUFFcM--63" edge="1">
          <mxGeometry relative="1" as="geometry" />
        </mxCell>
        <mxCell id="ODKjQ-sCagSUDkUFFcM--84" value="" style="rounded=0;orthogonalLoop=1;jettySize=auto;html=1;endArrow=none;endFill=0;" parent="1" source="ODKjQ-sCagSUDkUFFcM--61" target="ODKjQ-sCagSUDkUFFcM--69" edge="1">
          <mxGeometry relative="1" as="geometry">
            <mxPoint x="343" y="841" as="sourcePoint" />
          </mxGeometry>
        </mxCell>
        <mxCell id="ODKjQ-sCagSUDkUFFcM--61" value="2" style="ellipse;whiteSpace=wrap;html=1;endArrow=none;rounded=0;endFill=0;" parent="1" vertex="1">
          <mxGeometry x="365" y="770" width="40" height="40" as="geometry" />
        </mxCell>
        <mxCell id="ODKjQ-sCagSUDkUFFcM--85" value="" style="rounded=0;orthogonalLoop=1;jettySize=auto;html=1;endArrow=none;endFill=0;" parent="1" source="ODKjQ-sCagSUDkUFFcM--63" target="ODKjQ-sCagSUDkUFFcM--74" edge="1">
          <mxGeometry relative="1" as="geometry" />
        </mxCell>
        <mxCell id="ODKjQ-sCagSUDkUFFcM--63" value="3" style="ellipse;whiteSpace=wrap;html=1;endArrow=none;rounded=0;endFill=0;" parent="1" vertex="1">
          <mxGeometry x="460" y="810" width="40" height="40" as="geometry" />
        </mxCell>
        <mxCell id="ODKjQ-sCagSUDkUFFcM--83" value="" style="rounded=0;orthogonalLoop=1;jettySize=auto;html=1;endArrow=none;endFill=0;" parent="1" source="ODKjQ-sCagSUDkUFFcM--64" target="ODKjQ-sCagSUDkUFFcM--66" edge="1">
          <mxGeometry relative="1" as="geometry" />
        </mxCell>
        <mxCell id="ODKjQ-sCagSUDkUFFcM--64" value="Відділ виробництва" style="ellipse;whiteSpace=wrap;html=1;" parent="1" vertex="1">
          <mxGeometry x="120" y="800" width="80" height="60" as="geometry" />
        </mxCell>
        <mxCell id="ODKjQ-sCagSUDkUFFcM--65" value="" style="rounded=0;orthogonalLoop=1;jettySize=auto;html=1;endArrow=none;endFill=0;" parent="1" source="ODKjQ-sCagSUDkUFFcM--66" target="ODKjQ-sCagSUDkUFFcM--67" edge="1">
          <mxGeometry relative="1" as="geometry" />
        </mxCell>
        <mxCell id="ODKjQ-sCagSUDkUFFcM--66" value="Відділ якості" style="ellipse;whiteSpace=wrap;html=1;endArrow=none;rounded=0;endFill=0;" parent="1" vertex="1">
          <mxGeometry x="180" y="860" width="60" height="40" as="geometry" />
        </mxCell>
        <mxCell id="ODKjQ-sCagSUDkUFFcM--67" value="Відділ безпеки" style="ellipse;whiteSpace=wrap;html=1;endArrow=none;rounded=0;endFill=0;" parent="1" vertex="1">
          <mxGeometry x="220" y="920" width="60" height="40" as="geometry" />
        </mxCell>
        <mxCell id="ODKjQ-sCagSUDkUFFcM--68" value="" style="rounded=0;orthogonalLoop=1;jettySize=auto;html=1;endArrow=none;endFill=0;" parent="1" source="ODKjQ-sCagSUDkUFFcM--69" target="ODKjQ-sCagSUDkUFFcM--71" edge="1">
          <mxGeometry relative="1" as="geometry" />
        </mxCell>
        <mxCell id="ODKjQ-sCagSUDkUFFcM--69" value="Відділ маркетингу" style="ellipse;whiteSpace=wrap;html=1;endArrow=none;rounded=0;endFill=0;" parent="1" vertex="1">
          <mxGeometry x="270" y="830" width="80" height="60" as="geometry" />
        </mxCell>
        <mxCell id="ODKjQ-sCagSUDkUFFcM--70" value="" style="rounded=0;orthogonalLoop=1;jettySize=auto;html=1;endArrow=none;endFill=0;" parent="1" source="ODKjQ-sCagSUDkUFFcM--71" target="ODKjQ-sCagSUDkUFFcM--72" edge="1">
          <mxGeometry relative="1" as="geometry" />
        </mxCell>
        <mxCell id="ODKjQ-sCagSUDkUFFcM--71" value="Відділ продажів" style="ellipse;whiteSpace=wrap;html=1;endArrow=none;rounded=0;endFill=0;" parent="1" vertex="1">
          <mxGeometry x="330" y="900" width="60" height="50" as="geometry" />
        </mxCell>
        <mxCell id="ODKjQ-sCagSUDkUFFcM--72" value=" Відділ реклами" style="ellipse;whiteSpace=wrap;html=1;endArrow=none;rounded=0;endFill=0;" parent="1" vertex="1">
          <mxGeometry x="390" y="950" width="60" height="50" as="geometry" />
        </mxCell>
        <mxCell id="ODKjQ-sCagSUDkUFFcM--73" value="" style="rounded=0;orthogonalLoop=1;jettySize=auto;html=1;endArrow=none;endFill=0;" parent="1" source="ODKjQ-sCagSUDkUFFcM--74" target="ODKjQ-sCagSUDkUFFcM--76" edge="1">
          <mxGeometry relative="1" as="geometry" />
        </mxCell>
        <mxCell id="ODKjQ-sCagSUDkUFFcM--74" value="Відділ фінансів" style="ellipse;whiteSpace=wrap;html=1;endArrow=none;rounded=0;endFill=0;" parent="1" vertex="1">
          <mxGeometry x="390" y="850" width="60" height="50" as="geometry" />
        </mxCell>
        <mxCell id="ODKjQ-sCagSUDkUFFcM--75" value="" style="rounded=0;orthogonalLoop=1;jettySize=auto;html=1;endArrow=none;endFill=0;" parent="1" source="ODKjQ-sCagSUDkUFFcM--76" target="ODKjQ-sCagSUDkUFFcM--77" edge="1">
          <mxGeometry relative="1" as="geometry" />
        </mxCell>
        <mxCell id="ODKjQ-sCagSUDkUFFcM--76" value="Відділ бухгалтерії" style="ellipse;whiteSpace=wrap;html=1;endArrow=none;rounded=0;endFill=0;" parent="1" vertex="1">
          <mxGeometry x="460" y="880" width="70" height="60" as="geometry" />
        </mxCell>
        <mxCell id="ODKjQ-sCagSUDkUFFcM--77" value=" Відділ інвестицій" style="ellipse;whiteSpace=wrap;html=1;endArrow=none;rounded=0;endFill=0;" parent="1" vertex="1">
          <mxGeometry x="540" y="930" width="70" height="65" as="geometry" />
        </mxCell>
      </root>
    </mxGraphModel>
  </diagram>
</mxfile>
